<?xml version="1.0" encoding="UTF-8"?>
<svg xmlns="http://www.w3.org/2000/svg" width="512" height="512" viewBox="0 0 16 16">
  <defs>
    <linearGradient id="grad" x1="0%" y1="0%" x2="100%" y2="100%">
      <stop offset="0%" style="stop-color:#3B82F6;stop-opacity:1" />
      <stop offset="100%" style="stop-color:#2563EB;stop-opacity:1" />
    </linearGradient>
  </defs>
  <rect width="16" height="16" rx="3" fill="url(#grad)"/>
  <path fill="#ffffff" d="M3.501 2a1.5 1.5 0 0 0-1.5 1.5v6.997a1.5 1.5 0 0 0 1.5 1.5h2.5V13H4.495a.5.5 0 0 0 0 1H11.5a.5.5 0 1 0 0-1H10v-1.003h2.501a1.5 1.5 0 0 0 1.5-1.5V3.5a1.5 1.5 0 0 0-1.5-1.5zm5.5 9.997V13H7v-1.003z" />
</svg> 